<?xml version="1.0" encoding="UTF-8" standalone="no"?>
<!DOCTYPE svg PUBLIC "-//W3C//DTD SVG 1.1//EN"
 "http://www.w3.org/Graphics/SVG/1.1/DTD/svg11.dtd">
<!-- Generated by graphviz version 3.0.0 (20220226.1711)
 -->
<!-- Title: dependencies Pages: 1 -->
<svg width="880pt" height="247pt"
 viewBox="0.00 0.00 880.00 246.80" xmlns="http://www.w3.org/2000/svg" xmlns:xlink="http://www.w3.org/1999/xlink">
<g id="graph0" class="graph" transform="scale(1 1) rotate(0) translate(4 242.8)">
<title>dependencies</title>
<polygon fill="white" stroke="transparent" points="-4,4 -4,-242.8 876,-242.8 876,4 -4,4"/>
<text text-anchor="middle" x="436" y="-8.2" font-family="sans-serif" font-size="14.00">dependencies</text>
<g id="clust1" class="cluster">
<title>cluster_SharedModule</title>
<polygon fill="none" stroke="black" stroke-dasharray="1,5" points="8,-32.8 8,-230.8 864,-230.8 864,-32.8 8,-32.8"/>
</g>
<g id="clust9" class="cluster">
<title>cluster_SharedModule_exports</title>
<polygon fill="none" stroke="black" points="16,-170.8 16,-222.8 856,-222.8 856,-170.8 16,-170.8"/>
</g>
<g id="clust2" class="cluster">
<title>cluster_SharedModule_declarations</title>
<polygon fill="none" stroke="black" points="24,-40.8 24,-92.8 847,-92.8 847,-40.8 24,-40.8"/>
</g>
<!-- CharacterCardComponent -->
<g id="node1" class="node">
<title>CharacterCardComponent</title>
<polygon fill="#ffffb3" stroke="black" points="839.45,-84.8 676.55,-84.8 676.55,-48.8 839.45,-48.8 839.45,-84.8"/>
<text text-anchor="middle" x="758" y="-62.6" font-family="Times,serif" font-size="14.00">CharacterCardComponent</text>
</g>
<!-- SharedModule -->
<g id="node6" class="node">
<title>SharedModule</title>
<polygon fill="#8dd3c7" stroke="black" points="469.43,-149.8 466.43,-153.8 445.43,-153.8 442.43,-149.8 370.57,-149.8 370.57,-113.8 469.43,-113.8 469.43,-149.8"/>
<text text-anchor="middle" x="420" y="-127.6" font-family="Times,serif" font-size="14.00">SharedModule</text>
</g>
<!-- CharacterCardComponent&#45;&gt;SharedModule -->
<g id="edge1" class="edge">
<title>CharacterCardComponent&#45;&gt;SharedModule</title>
<path fill="none" stroke="black" d="M786.91,-85.07C786.91,-103.36 786.91,-128.8 786.91,-128.8 786.91,-128.8 479.48,-128.8 479.48,-128.8"/>
<polygon fill="black" stroke="black" points="479.48,-125.3 469.48,-128.8 479.48,-132.3 479.48,-125.3"/>
</g>
<!-- ComicCardComponent -->
<g id="node2" class="node">
<title>ComicCardComponent</title>
<polygon fill="#ffffb3" stroke="black" points="658.88,-84.8 513.12,-84.8 513.12,-48.8 658.88,-48.8 658.88,-84.8"/>
<text text-anchor="middle" x="586" y="-62.6" font-family="Times,serif" font-size="14.00">ComicCardComponent</text>
</g>
<!-- ComicCardComponent&#45;&gt;SharedModule -->
<g id="edge2" class="edge">
<title>ComicCardComponent&#45;&gt;SharedModule</title>
<path fill="none" stroke="black" d="M610.73,-84.81C610.73,-100.85 610.73,-121.8 610.73,-121.8 610.73,-121.8 479.61,-121.8 479.61,-121.8"/>
<polygon fill="black" stroke="black" points="479.61,-118.3 469.61,-121.8 479.61,-125.3 479.61,-118.3"/>
</g>
<!-- ProgressBarComponent -->
<g id="node3" class="node">
<title>ProgressBarComponent</title>
<polygon fill="#ffffb3" stroke="black" points="494.77,-84.8 345.23,-84.8 345.23,-48.8 494.77,-48.8 494.77,-84.8"/>
<text text-anchor="middle" x="420" y="-62.6" font-family="Times,serif" font-size="14.00">ProgressBarComponent</text>
</g>
<!-- ProgressBarComponent&#45;&gt;SharedModule -->
<g id="edge3" class="edge">
<title>ProgressBarComponent&#45;&gt;SharedModule</title>
<path fill="none" stroke="black" d="M420,-84.91C420,-84.91 420,-103.79 420,-103.79"/>
<polygon fill="black" stroke="black" points="416.5,-103.79 420,-113.79 423.5,-103.79 416.5,-103.79"/>
</g>
<!-- SearchBarComponent -->
<g id="node4" class="node">
<title>SearchBarComponent</title>
<polygon fill="#ffffb3" stroke="black" points="326.64,-84.8 187.36,-84.8 187.36,-48.8 326.64,-48.8 326.64,-84.8"/>
<text text-anchor="middle" x="257" y="-62.6" font-family="Times,serif" font-size="14.00">SearchBarComponent</text>
</g>
<!-- SearchBarComponent&#45;&gt;SharedModule -->
<g id="edge4" class="edge">
<title>SearchBarComponent&#45;&gt;SharedModule</title>
<path fill="none" stroke="black" d="M279.44,-84.81C279.44,-100.85 279.44,-121.8 279.44,-121.8 279.44,-121.8 360.44,-121.8 360.44,-121.8"/>
<polygon fill="black" stroke="black" points="360.44,-125.3 370.44,-121.8 360.44,-118.3 360.44,-125.3"/>
</g>
<!-- SerieCardComponent -->
<g id="node5" class="node">
<title>SerieCardComponent</title>
<polygon fill="#ffffb3" stroke="black" points="169.81,-84.8 32.19,-84.8 32.19,-48.8 169.81,-48.8 169.81,-84.8"/>
<text text-anchor="middle" x="101" y="-62.6" font-family="Times,serif" font-size="14.00">SerieCardComponent</text>
</g>
<!-- SerieCardComponent&#45;&gt;SharedModule -->
<g id="edge5" class="edge">
<title>SerieCardComponent&#45;&gt;SharedModule</title>
<path fill="none" stroke="black" d="M120.39,-85.07C120.39,-103.36 120.39,-128.8 120.39,-128.8 120.39,-128.8 360.52,-128.8 360.52,-128.8"/>
<polygon fill="black" stroke="black" points="360.52,-132.3 370.52,-128.8 360.52,-125.3 360.52,-132.3"/>
</g>
<!-- CharacterCardComponent  -->
<g id="node7" class="node">
<title>CharacterCardComponent </title>
<polygon fill="#fb8072" stroke="black" points="848.45,-214.8 681.55,-214.8 681.55,-178.8 848.45,-178.8 848.45,-214.8"/>
<text text-anchor="middle" x="765" y="-192.6" font-family="Times,serif" font-size="14.00">CharacterCardComponent </text>
</g>
<!-- SharedModule&#45;&gt;CharacterCardComponent  -->
<g id="edge6" class="edge">
<title>SharedModule&#45;&gt;CharacterCardComponent </title>
<path fill="none" stroke="black" stroke-dasharray="5,2" d="M469.46,-135.8C557.98,-135.8 734.34,-135.8 734.34,-135.8 734.34,-135.8 734.34,-168.5 734.34,-168.5"/>
<polygon fill="black" stroke="black" points="730.84,-168.5 734.34,-178.5 737.84,-168.5 730.84,-168.5"/>
</g>
<!-- ComicCardComponent  -->
<g id="node8" class="node">
<title>ComicCardComponent </title>
<polygon fill="#fb8072" stroke="black" points="663.88,-214.8 514.12,-214.8 514.12,-178.8 663.88,-178.8 663.88,-214.8"/>
<text text-anchor="middle" x="589" y="-192.6" font-family="Times,serif" font-size="14.00">ComicCardComponent </text>
</g>
<!-- SharedModule&#45;&gt;ComicCardComponent  -->
<g id="edge7" class="edge">
<title>SharedModule&#45;&gt;ComicCardComponent </title>
<path fill="none" stroke="black" stroke-dasharray="5,2" d="M469.45,-142.8C510.61,-142.8 562.52,-142.8 562.52,-142.8 562.52,-142.8 562.52,-168.52 562.52,-168.52"/>
<polygon fill="black" stroke="black" points="559.02,-168.52 562.52,-178.52 566.02,-168.52 559.02,-168.52"/>
</g>
<!-- ProgressBarComponent  -->
<g id="node9" class="node">
<title>ProgressBarComponent </title>
<polygon fill="#fb8072" stroke="black" points="496.77,-214.8 343.23,-214.8 343.23,-178.8 496.77,-178.8 496.77,-214.8"/>
<text text-anchor="middle" x="420" y="-192.6" font-family="Times,serif" font-size="14.00">ProgressBarComponent </text>
</g>
<!-- SharedModule&#45;&gt;ProgressBarComponent  -->
<g id="edge8" class="edge">
<title>SharedModule&#45;&gt;ProgressBarComponent </title>
<path fill="none" stroke="black" stroke-dasharray="5,2" d="M420,-149.91C420,-149.91 420,-168.79 420,-168.79"/>
<polygon fill="black" stroke="black" points="416.5,-168.79 420,-178.79 423.5,-168.79 416.5,-168.79"/>
</g>
<!-- SearchBarComponent  -->
<g id="node10" class="node">
<title>SearchBarComponent </title>
<polygon fill="#fb8072" stroke="black" points="325.63,-214.8 182.37,-214.8 182.37,-178.8 325.63,-178.8 325.63,-214.8"/>
<text text-anchor="middle" x="254" y="-192.6" font-family="Times,serif" font-size="14.00">SearchBarComponent </text>
</g>
<!-- SharedModule&#45;&gt;SearchBarComponent  -->
<g id="edge9" class="edge">
<title>SharedModule&#45;&gt;SearchBarComponent </title>
<path fill="none" stroke="black" stroke-dasharray="5,2" d="M370.46,-142.8C315.15,-142.8 233.31,-142.8 233.31,-142.8 233.31,-142.8 233.31,-168.52 233.31,-168.52"/>
<polygon fill="black" stroke="black" points="229.81,-168.52 233.31,-178.52 236.81,-168.52 229.81,-168.52"/>
</g>
<!-- SerieCardComponent  -->
<g id="node11" class="node">
<title>SerieCardComponent </title>
<polygon fill="#fb8072" stroke="black" points="164.31,-214.8 23.69,-214.8 23.69,-178.8 164.31,-178.8 164.31,-214.8"/>
<text text-anchor="middle" x="94" y="-192.6" font-family="Times,serif" font-size="14.00">SerieCardComponent </text>
</g>
<!-- SharedModule&#45;&gt;SerieCardComponent  -->
<g id="edge10" class="edge">
<title>SharedModule&#45;&gt;SerieCardComponent </title>
<path fill="none" stroke="black" stroke-dasharray="5,2" d="M370.77,-135.8C275.75,-135.8 76.36,-135.8 76.36,-135.8 76.36,-135.8 76.36,-168.5 76.36,-168.5"/>
<polygon fill="black" stroke="black" points="72.87,-168.5 76.36,-178.5 79.87,-168.5 72.87,-168.5"/>
</g>
</g>
</svg>
