<?xml version="1.0" encoding="UTF-8" standalone="no"?>
<!DOCTYPE svg PUBLIC "-//W3C//DTD SVG 1.1//EN"
 "http://www.w3.org/Graphics/SVG/1.1/DTD/svg11.dtd">
<!-- Generated by graphviz version 3.0.0 (20220226.1711)
 -->
<!-- Title: dependencies Pages: 1 -->
<svg width="971pt" height="247pt"
 viewBox="0.00 0.00 971.00 246.80" xmlns="http://www.w3.org/2000/svg" xmlns:xlink="http://www.w3.org/1999/xlink">
<g id="graph0" class="graph" transform="scale(1 1) rotate(0) translate(4 242.8)">
<title>dependencies</title>
<polygon fill="white" stroke="transparent" points="-4,4 -4,-242.8 967,-242.8 967,4 -4,4"/>
<text text-anchor="middle" x="481.5" y="-8.2" font-family="sans-serif" font-size="14.00">dependencies</text>
<g id="clust1" class="cluster">
<title>cluster_AppModule</title>
<polygon fill="none" stroke="black" stroke-dasharray="1,5" points="8,-32.8 8,-230.8 955,-230.8 955,-32.8 8,-32.8"/>
</g>
<g id="clust2" class="cluster">
<title>cluster_AppModule_declarations</title>
<polygon fill="none" stroke="black" points="390,-40.8 390,-92.8 947,-92.8 947,-40.8 390,-40.8"/>
</g>
<g id="clust7" class="cluster">
<title>cluster_AppModule_imports</title>
<polygon fill="none" stroke="black" points="16,-40.8 16,-92.8 382,-92.8 382,-40.8 16,-40.8"/>
</g>
<g id="clust9" class="cluster">
<title>cluster_AppModule_bootstrap</title>
<polygon fill="none" stroke="black" points="394,-170.8 394,-222.8 518,-222.8 518,-170.8 394,-170.8"/>
</g>
<!-- AppComponent -->
<g id="node1" class="node">
<title>AppComponent</title>
<polygon fill="#ffffb3" stroke="black" points="938.94,-84.8 833.06,-84.8 833.06,-48.8 938.94,-48.8 938.94,-84.8"/>
<text text-anchor="middle" x="886" y="-62.6" font-family="Times,serif" font-size="14.00">AppComponent</text>
</g>
<!-- AppModule -->
<g id="node5" class="node">
<title>AppModule</title>
<polygon fill="#8dd3c7" stroke="black" points="497.66,-149.8 494.66,-153.8 473.66,-153.8 470.66,-149.8 414.34,-149.8 414.34,-113.8 497.66,-113.8 497.66,-149.8"/>
<text text-anchor="middle" x="456" y="-127.6" font-family="Times,serif" font-size="14.00">AppModule</text>
</g>
<!-- AppComponent&#45;&gt;AppModule -->
<g id="edge1" class="edge">
<title>AppComponent&#45;&gt;AppModule</title>
<path fill="none" stroke="black" d="M886,-85.09C886,-107.01 886,-140.8 886,-140.8 886,-140.8 508.01,-140.8 508.01,-140.8"/>
<polygon fill="black" stroke="black" points="508.01,-137.3 498.01,-140.8 508.01,-144.3 508.01,-137.3"/>
</g>
<!-- CharactersComponent -->
<g id="node2" class="node">
<title>CharactersComponent</title>
<polygon fill="#ffffb3" stroke="black" points="815.69,-84.8 674.31,-84.8 674.31,-48.8 815.69,-48.8 815.69,-84.8"/>
<text text-anchor="middle" x="745" y="-62.6" font-family="Times,serif" font-size="14.00">CharactersComponent</text>
</g>
<!-- CharactersComponent&#45;&gt;AppModule -->
<g id="edge2" class="edge">
<title>CharactersComponent&#45;&gt;AppModule</title>
<path fill="none" stroke="black" d="M745,-84.91C745,-104.14 745,-131.8 745,-131.8 745,-131.8 507.71,-131.8 507.71,-131.8"/>
<polygon fill="black" stroke="black" points="507.71,-128.3 497.71,-131.8 507.71,-135.3 507.71,-128.3"/>
</g>
<!-- ComicsComponent -->
<g id="node3" class="node">
<title>ComicsComponent</title>
<polygon fill="#ffffb3" stroke="black" points="656.11,-84.8 531.89,-84.8 531.89,-48.8 656.11,-48.8 656.11,-84.8"/>
<text text-anchor="middle" x="594" y="-62.6" font-family="Times,serif" font-size="14.00">ComicsComponent</text>
</g>
<!-- ComicsComponent&#45;&gt;AppModule -->
<g id="edge3" class="edge">
<title>ComicsComponent&#45;&gt;AppModule</title>
<path fill="none" stroke="black" d="M594,-84.83C594,-101.2 594,-122.8 594,-122.8 594,-122.8 507.78,-122.8 507.78,-122.8"/>
<polygon fill="black" stroke="black" points="507.78,-119.3 497.78,-122.8 507.78,-126.3 507.78,-119.3"/>
</g>
<!-- SeriesComponent -->
<g id="node4" class="node">
<title>SeriesComponent</title>
<polygon fill="#ffffb3" stroke="black" points="513.55,-84.8 398.45,-84.8 398.45,-48.8 513.55,-48.8 513.55,-84.8"/>
<text text-anchor="middle" x="456" y="-62.6" font-family="Times,serif" font-size="14.00">SeriesComponent</text>
</g>
<!-- SeriesComponent&#45;&gt;AppModule -->
<g id="edge4" class="edge">
<title>SeriesComponent&#45;&gt;AppModule</title>
<path fill="none" stroke="black" d="M456,-84.91C456,-84.91 456,-103.79 456,-103.79"/>
<polygon fill="black" stroke="black" points="452.5,-103.79 456,-113.79 459.5,-103.79 452.5,-103.79"/>
</g>
<!-- AppComponent  -->
<g id="node9" class="node">
<title>AppComponent </title>
<polygon fill="#80b1d3" stroke="black" points="510.44,-214.8 401.56,-214.8 401.56,-178.8 510.44,-178.8 510.44,-214.8"/>
<text text-anchor="middle" x="456" y="-192.6" font-family="Times,serif" font-size="14.00">AppComponent </text>
</g>
<!-- AppModule&#45;&gt;AppComponent  -->
<g id="edge8" class="edge">
<title>AppModule&#45;&gt;AppComponent </title>
<path fill="none" stroke="black" stroke-dasharray="1,5" d="M456,-149.91C456,-149.91 456,-168.79 456,-168.79"/>
<polygon fill="black" stroke="black" points="452.5,-168.79 456,-178.79 459.5,-168.79 452.5,-168.79"/>
</g>
<!-- AppRoutingModule -->
<g id="node6" class="node">
<title>AppRoutingModule</title>
<polygon fill="#8dd3c7" stroke="black" points="374.28,-84.8 371.28,-88.8 350.28,-88.8 347.28,-84.8 245.72,-84.8 245.72,-48.8 374.28,-48.8 374.28,-84.8"/>
<text text-anchor="middle" x="310" y="-62.6" font-family="Times,serif" font-size="14.00">AppRoutingModule</text>
</g>
<!-- AppRoutingModule&#45;&gt;AppModule -->
<g id="edge5" class="edge">
<title>AppRoutingModule&#45;&gt;AppModule</title>
<path fill="none" stroke="black" d="M310,-84.83C310,-101.2 310,-122.8 310,-122.8 310,-122.8 404.16,-122.8 404.16,-122.8"/>
<polygon fill="black" stroke="black" points="404.16,-126.3 414.16,-122.8 404.16,-119.3 404.16,-126.3"/>
</g>
<!-- CoreModule -->
<g id="node7" class="node">
<title>CoreModule</title>
<polygon fill="#8dd3c7" stroke="black" points="227.27,-84.8 224.27,-88.8 203.27,-88.8 200.27,-84.8 140.73,-84.8 140.73,-48.8 227.27,-48.8 227.27,-84.8"/>
<text text-anchor="middle" x="184" y="-62.6" font-family="Times,serif" font-size="14.00">CoreModule</text>
</g>
<!-- CoreModule&#45;&gt;AppModule -->
<g id="edge6" class="edge">
<title>CoreModule&#45;&gt;AppModule</title>
<path fill="none" stroke="black" d="M184,-84.91C184,-104.14 184,-131.8 184,-131.8 184,-131.8 404.1,-131.8 404.1,-131.8"/>
<polygon fill="black" stroke="black" points="404.1,-135.3 414.1,-131.8 404.1,-128.3 404.1,-135.3"/>
</g>
<!-- SharedModule -->
<g id="node8" class="node">
<title>SharedModule</title>
<polygon fill="#8dd3c7" stroke="black" points="122.43,-84.8 119.43,-88.8 98.43,-88.8 95.43,-84.8 23.57,-84.8 23.57,-48.8 122.43,-48.8 122.43,-84.8"/>
<text text-anchor="middle" x="73" y="-62.6" font-family="Times,serif" font-size="14.00">SharedModule</text>
</g>
<!-- SharedModule&#45;&gt;AppModule -->
<g id="edge7" class="edge">
<title>SharedModule&#45;&gt;AppModule</title>
<path fill="none" stroke="black" d="M73,-85.09C73,-107.01 73,-140.8 73,-140.8 73,-140.8 404.28,-140.8 404.28,-140.8"/>
<polygon fill="black" stroke="black" points="404.28,-144.3 414.28,-140.8 404.28,-137.3 404.28,-144.3"/>
</g>
</g>
</svg>
