<?xml version="1.0" encoding="UTF-8" standalone="no"?>
<!DOCTYPE svg PUBLIC "-//W3C//DTD SVG 1.1//EN"
 "http://www.w3.org/Graphics/SVG/1.1/DTD/svg11.dtd">
<!-- Generated by graphviz version 3.0.0 (20220226.1711)
 -->
<!-- Title: dependencies Pages: 1 -->
<svg width="2666pt" height="329pt"
 viewBox="0.00 0.00 2666.00 328.80" xmlns="http://www.w3.org/2000/svg" xmlns:xlink="http://www.w3.org/1999/xlink">
<g id="graph0" class="graph" transform="scale(1 1) rotate(0) translate(4 324.8)">
<title>dependencies</title>
<polygon fill="white" stroke="transparent" points="-4,4 -4,-324.8 2662,-324.8 2662,4 -4,4"/>
<text text-anchor="middle" x="1329" y="-8.2" font-family="sans-serif" font-size="14.00">dependencies</text>
<g id="clust1" class="cluster">
<title>cluster_AppModule</title>
<polygon fill="none" stroke="black" stroke-dasharray="1,5" points="8,-108.8 8,-312.8 955,-312.8 955,-108.8 8,-108.8"/>
</g>
<g id="clust2" class="cluster">
<title>cluster_AppModule_declarations</title>
<polygon fill="none" stroke="black" points="16,-116.8 16,-168.8 573,-168.8 573,-116.8 16,-116.8"/>
</g>
<g id="clust7" class="cluster">
<title>cluster_AppModule_imports</title>
<polygon fill="none" stroke="black" points="581,-116.8 581,-168.8 947,-168.8 947,-116.8 581,-116.8"/>
</g>
<g id="clust9" class="cluster">
<title>cluster_AppModule_bootstrap</title>
<polygon fill="none" stroke="black" points="450,-252.8 450,-304.8 574,-304.8 574,-252.8 450,-252.8"/>
</g>
<g id="clust17" class="cluster">
<title>cluster_CoreModule</title>
<polygon fill="none" stroke="black" stroke-dasharray="1,5" points="205,-32.8 205,-100.8 991,-100.8 991,-32.8 205,-32.8"/>
</g>
<g id="clust18" class="cluster">
<title>cluster_CoreModule_declarations</title>
<polygon fill="none" stroke="black" points="709,-40.8 709,-92.8 983,-92.8 983,-40.8 709,-40.8"/>
</g>
<g id="clust22" class="cluster">
<title>cluster_CoreModule_exports</title>
<polygon fill="none" stroke="black" points="419,-40.8 419,-92.8 701,-92.8 701,-40.8 419,-40.8"/>
</g>
<g id="clust24" class="cluster">
<title>cluster_CoreModule_providers</title>
<polygon fill="none" stroke="black" points="213,-40.8 213,-92.8 411,-92.8 411,-40.8 213,-40.8"/>
</g>
<g id="clust25" class="cluster">
<title>cluster_SharedModule</title>
<polygon fill="none" stroke="black" stroke-dasharray="1,5" points="963,-176.8 963,-244.8 2650,-244.8 2650,-176.8 963,-176.8"/>
</g>
<g id="clust26" class="cluster">
<title>cluster_SharedModule_declarations</title>
<polygon fill="none" stroke="black" points="1819,-184.8 1819,-236.8 2642,-236.8 2642,-184.8 1819,-184.8"/>
</g>
<g id="clust33" class="cluster">
<title>cluster_SharedModule_exports</title>
<polygon fill="none" stroke="black" points="971,-184.8 971,-236.8 1811,-236.8 1811,-184.8 971,-184.8"/>
</g>
<!-- AppComponent -->
<g id="node1" class="node">
<title>AppComponent</title>
<polygon fill="#ffffb3" stroke="black" points="564.94,-160.8 459.06,-160.8 459.06,-124.8 564.94,-124.8 564.94,-160.8"/>
<text text-anchor="middle" x="512" y="-138.6" font-family="Times,serif" font-size="14.00">AppComponent</text>
</g>
<!-- AppModule -->
<g id="node5" class="node">
<title>AppModule</title>
<polygon fill="#8dd3c7" stroke="black" points="553.66,-228.8 550.66,-232.8 529.66,-232.8 526.66,-228.8 470.34,-228.8 470.34,-192.8 553.66,-192.8 553.66,-228.8"/>
<text text-anchor="middle" x="512" y="-206.6" font-family="Times,serif" font-size="14.00">AppModule</text>
</g>
<!-- AppComponent&#45;&gt;AppModule -->
<g id="edge1" class="edge">
<title>AppComponent&#45;&gt;AppModule</title>
<path fill="none" stroke="black" d="M512,-161.02C512,-161.02 512,-182.53 512,-182.53"/>
<polygon fill="black" stroke="black" points="508.5,-182.53 512,-192.53 515.5,-182.53 508.5,-182.53"/>
</g>
<!-- CharactersComponent -->
<g id="node2" class="node">
<title>CharactersComponent</title>
<polygon fill="#ffffb3" stroke="black" points="441.69,-160.8 300.31,-160.8 300.31,-124.8 441.69,-124.8 441.69,-160.8"/>
<text text-anchor="middle" x="371" y="-138.6" font-family="Times,serif" font-size="14.00">CharactersComponent</text>
</g>
<!-- CharactersComponent&#45;&gt;AppModule -->
<g id="edge2" class="edge">
<title>CharactersComponent&#45;&gt;AppModule</title>
<path fill="none" stroke="black" d="M371,-160.82C371,-178.17 371,-201.8 371,-201.8 371,-201.8 460.08,-201.8 460.08,-201.8"/>
<polygon fill="black" stroke="black" points="460.08,-205.3 470.08,-201.8 460.08,-198.3 460.08,-205.3"/>
</g>
<!-- ComicsComponent -->
<g id="node3" class="node">
<title>ComicsComponent</title>
<polygon fill="#ffffb3" stroke="black" points="282.11,-160.8 157.89,-160.8 157.89,-124.8 282.11,-124.8 282.11,-160.8"/>
<text text-anchor="middle" x="220" y="-138.6" font-family="Times,serif" font-size="14.00">ComicsComponent</text>
</g>
<!-- ComicsComponent&#45;&gt;AppModule -->
<g id="edge3" class="edge">
<title>ComicsComponent&#45;&gt;AppModule</title>
<path fill="none" stroke="black" d="M220,-161.02C220,-181.17 220,-210.8 220,-210.8 220,-210.8 460.16,-210.8 460.16,-210.8"/>
<polygon fill="black" stroke="black" points="460.16,-214.3 470.16,-210.8 460.16,-207.3 460.16,-214.3"/>
</g>
<!-- SeriesComponent -->
<g id="node4" class="node">
<title>SeriesComponent</title>
<polygon fill="#ffffb3" stroke="black" points="139.55,-160.8 24.45,-160.8 24.45,-124.8 139.55,-124.8 139.55,-160.8"/>
<text text-anchor="middle" x="82" y="-138.6" font-family="Times,serif" font-size="14.00">SeriesComponent</text>
</g>
<!-- SeriesComponent&#45;&gt;AppModule -->
<g id="edge4" class="edge">
<title>SeriesComponent&#45;&gt;AppModule</title>
<path fill="none" stroke="black" d="M82,-161.05C82,-183.82 82,-219.8 82,-219.8 82,-219.8 459.99,-219.8 459.99,-219.8"/>
<polygon fill="black" stroke="black" points="459.99,-223.3 469.99,-219.8 459.99,-216.3 459.99,-223.3"/>
</g>
<!-- AppComponent  -->
<g id="node9" class="node">
<title>AppComponent </title>
<polygon fill="#80b1d3" stroke="black" points="566.44,-296.8 457.56,-296.8 457.56,-260.8 566.44,-260.8 566.44,-296.8"/>
<text text-anchor="middle" x="512" y="-274.6" font-family="Times,serif" font-size="14.00">AppComponent </text>
</g>
<!-- AppModule&#45;&gt;AppComponent  -->
<g id="edge8" class="edge">
<title>AppModule&#45;&gt;AppComponent </title>
<path fill="none" stroke="black" stroke-dasharray="1,5" d="M512,-229.02C512,-229.02 512,-250.53 512,-250.53"/>
<polygon fill="black" stroke="black" points="508.5,-250.53 512,-260.53 515.5,-250.53 508.5,-250.53"/>
</g>
<!-- AppRoutingModule -->
<g id="node6" class="node">
<title>AppRoutingModule</title>
<polygon fill="#8dd3c7" stroke="black" points="822.28,-160.8 819.28,-164.8 798.28,-164.8 795.28,-160.8 693.72,-160.8 693.72,-124.8 822.28,-124.8 822.28,-160.8"/>
<text text-anchor="middle" x="758" y="-138.6" font-family="Times,serif" font-size="14.00">AppRoutingModule</text>
</g>
<!-- AppRoutingModule&#45;&gt;AppModule -->
<g id="edge5" class="edge">
<title>AppRoutingModule&#45;&gt;AppModule</title>
<path fill="none" stroke="black" d="M758,-160.97C758,-182.3 758,-214.8 758,-214.8 758,-214.8 563.73,-214.8 563.73,-214.8"/>
<polygon fill="black" stroke="black" points="563.73,-211.3 553.73,-214.8 563.73,-218.3 563.73,-211.3"/>
</g>
<!-- CoreModule -->
<g id="node7" class="node">
<title>CoreModule</title>
<polygon fill="#8dd3c7" stroke="black" points="675.27,-160.8 672.27,-164.8 651.27,-164.8 648.27,-160.8 588.73,-160.8 588.73,-124.8 675.27,-124.8 675.27,-160.8"/>
<text text-anchor="middle" x="632" y="-138.6" font-family="Times,serif" font-size="14.00">CoreModule</text>
</g>
<!-- CoreModule&#45;&gt;AppModule -->
<g id="edge6" class="edge">
<title>CoreModule&#45;&gt;AppModule</title>
<path fill="none" stroke="black" d="M632,-160.91C632,-180.14 632,-207.8 632,-207.8 632,-207.8 563.97,-207.8 563.97,-207.8"/>
<polygon fill="black" stroke="black" points="563.97,-204.3 553.97,-207.8 563.97,-211.3 563.97,-204.3"/>
</g>
<!-- FooterComponent  -->
<g id="node12" class="node">
<title>FooterComponent </title>
<polygon fill="#fb8072" stroke="black" points="692.88,-84.8 571.12,-84.8 571.12,-48.8 692.88,-48.8 692.88,-84.8"/>
<text text-anchor="middle" x="632" y="-62.6" font-family="Times,serif" font-size="14.00">FooterComponent </text>
</g>
<!-- CoreModule&#45;&gt;FooterComponent  -->
<g id="edge11" class="edge">
<title>CoreModule&#45;&gt;FooterComponent </title>
<path fill="none" stroke="black" stroke-dasharray="5,2" d="M632,-124.79C632,-124.79 632,-94.95 632,-94.95"/>
<polygon fill="black" stroke="black" points="635.5,-94.95 632,-84.95 628.5,-94.95 635.5,-94.95"/>
</g>
<!-- NavbarComponent  -->
<g id="node13" class="node">
<title>NavbarComponent </title>
<polygon fill="#fb8072" stroke="black" points="553.03,-84.8 426.97,-84.8 426.97,-48.8 553.03,-48.8 553.03,-84.8"/>
<text text-anchor="middle" x="490" y="-62.6" font-family="Times,serif" font-size="14.00">NavbarComponent </text>
</g>
<!-- CoreModule&#45;&gt;NavbarComponent  -->
<g id="edge12" class="edge">
<title>CoreModule&#45;&gt;NavbarComponent </title>
<path fill="none" stroke="black" stroke-dasharray="5,2" d="M617.54,-124.61C617.54,-116.52 617.54,-108.8 617.54,-108.8 617.54,-108.8 506.15,-108.8 506.15,-108.8 506.15,-108.8 506.15,-94.86 506.15,-94.86"/>
<polygon fill="black" stroke="black" points="509.65,-94.86 506.15,-84.86 502.65,-94.86 509.65,-94.86"/>
</g>
<!-- SharedModule -->
<g id="node8" class="node">
<title>SharedModule</title>
<polygon fill="#8dd3c7" stroke="black" points="939.43,-160.8 936.43,-164.8 915.43,-164.8 912.43,-160.8 840.57,-160.8 840.57,-124.8 939.43,-124.8 939.43,-160.8"/>
<text text-anchor="middle" x="890" y="-138.6" font-family="Times,serif" font-size="14.00">SharedModule</text>
</g>
<!-- SharedModule&#45;&gt;AppModule -->
<g id="edge7" class="edge">
<title>SharedModule&#45;&gt;AppModule</title>
<path fill="none" stroke="black" d="M873.6,-161.12C873.6,-184.46 873.6,-221.8 873.6,-221.8 873.6,-221.8 563.83,-221.8 563.83,-221.8"/>
<polygon fill="black" stroke="black" points="563.83,-218.3 553.83,-221.8 563.83,-225.3 563.83,-218.3"/>
</g>
<!-- CharacterCardComponent  -->
<g id="node20" class="node">
<title>CharacterCardComponent </title>
<polygon fill="#fb8072" stroke="black" points="1803.45,-228.8 1636.55,-228.8 1636.55,-192.8 1803.45,-192.8 1803.45,-228.8"/>
<text text-anchor="middle" x="1720" y="-206.6" font-family="Times,serif" font-size="14.00">CharacterCardComponent </text>
</g>
<!-- SharedModule&#45;&gt;CharacterCardComponent  -->
<g id="edge19" class="edge">
<title>SharedModule&#45;&gt;CharacterCardComponent </title>
<path fill="none" stroke="black" stroke-dasharray="5,2" d="M939.43,-146.8C1118.12,-146.8 1720,-146.8 1720,-146.8 1720,-146.8 1720,-182.63 1720,-182.63"/>
<polygon fill="black" stroke="black" points="1716.5,-182.63 1720,-192.63 1723.5,-182.63 1716.5,-182.63"/>
</g>
<!-- ComicCardComponent  -->
<g id="node21" class="node">
<title>ComicCardComponent </title>
<polygon fill="#fb8072" stroke="black" points="1618.88,-228.8 1469.12,-228.8 1469.12,-192.8 1618.88,-192.8 1618.88,-228.8"/>
<text text-anchor="middle" x="1544" y="-206.6" font-family="Times,serif" font-size="14.00">ComicCardComponent </text>
</g>
<!-- SharedModule&#45;&gt;ComicCardComponent  -->
<g id="edge20" class="edge">
<title>SharedModule&#45;&gt;ComicCardComponent </title>
<path fill="none" stroke="black" stroke-dasharray="5,2" d="M939.42,-150.8C1091.78,-150.8 1544,-150.8 1544,-150.8 1544,-150.8 1544,-182.8 1544,-182.8"/>
<polygon fill="black" stroke="black" points="1540.5,-182.8 1544,-192.8 1547.5,-182.8 1540.5,-182.8"/>
</g>
<!-- ProgressBarComponent  -->
<g id="node22" class="node">
<title>ProgressBarComponent </title>
<polygon fill="#fb8072" stroke="black" points="1451.77,-228.8 1298.23,-228.8 1298.23,-192.8 1451.77,-192.8 1451.77,-228.8"/>
<text text-anchor="middle" x="1375" y="-206.6" font-family="Times,serif" font-size="14.00">ProgressBarComponent </text>
</g>
<!-- SharedModule&#45;&gt;ProgressBarComponent  -->
<g id="edge21" class="edge">
<title>SharedModule&#45;&gt;ProgressBarComponent </title>
<path fill="none" stroke="black" stroke-dasharray="5,2" d="M939.62,-153.8C1063.23,-153.8 1375,-153.8 1375,-153.8 1375,-153.8 1375,-182.76 1375,-182.76"/>
<polygon fill="black" stroke="black" points="1371.5,-182.76 1375,-192.76 1378.5,-182.76 1371.5,-182.76"/>
</g>
<!-- SearchBarComponent  -->
<g id="node23" class="node">
<title>SearchBarComponent </title>
<polygon fill="#fb8072" stroke="black" points="1280.63,-228.8 1137.37,-228.8 1137.37,-192.8 1280.63,-192.8 1280.63,-228.8"/>
<text text-anchor="middle" x="1209" y="-206.6" font-family="Times,serif" font-size="14.00">SearchBarComponent </text>
</g>
<!-- SharedModule&#45;&gt;SearchBarComponent  -->
<g id="edge22" class="edge">
<title>SharedModule&#45;&gt;SearchBarComponent </title>
<path fill="none" stroke="black" stroke-dasharray="5,2" d="M939.49,-157.8C1029.09,-157.8 1209,-157.8 1209,-157.8 1209,-157.8 1209,-182.56 1209,-182.56"/>
<polygon fill="black" stroke="black" points="1205.5,-182.56 1209,-192.56 1212.5,-182.56 1205.5,-182.56"/>
</g>
<!-- SerieCardComponent  -->
<g id="node24" class="node">
<title>SerieCardComponent </title>
<polygon fill="#fb8072" stroke="black" points="1119.31,-228.8 978.69,-228.8 978.69,-192.8 1119.31,-192.8 1119.31,-228.8"/>
<text text-anchor="middle" x="1049" y="-206.6" font-family="Times,serif" font-size="14.00">SerieCardComponent </text>
</g>
<!-- SharedModule&#45;&gt;SerieCardComponent  -->
<g id="edge23" class="edge">
<title>SharedModule&#45;&gt;SerieCardComponent </title>
<path fill="none" stroke="black" stroke-dasharray="5,2" d="M906.4,-160.83C906.4,-177.86 906.4,-200.8 906.4,-200.8 906.4,-200.8 968.54,-200.8 968.54,-200.8"/>
<polygon fill="black" stroke="black" points="968.54,-204.3 978.54,-200.8 968.54,-197.3 968.54,-204.3"/>
</g>
<!-- FooterComponent -->
<g id="node10" class="node">
<title>FooterComponent</title>
<polygon fill="#ffffb3" stroke="black" points="974.88,-84.8 857.12,-84.8 857.12,-48.8 974.88,-48.8 974.88,-84.8"/>
<text text-anchor="middle" x="916" y="-62.6" font-family="Times,serif" font-size="14.00">FooterComponent</text>
</g>
<!-- FooterComponent&#45;&gt;CoreModule -->
<g id="edge9" class="edge">
<title>FooterComponent&#45;&gt;CoreModule</title>
<path fill="none" stroke="black" d="M898.14,-84.99C898.14,-93.08 898.14,-100.8 898.14,-100.8 898.14,-100.8 660.92,-100.8 660.92,-100.8 660.92,-100.8 660.92,-114.74 660.92,-114.74"/>
<polygon fill="black" stroke="black" points="657.42,-114.74 660.92,-124.74 664.42,-114.74 657.42,-114.74"/>
</g>
<!-- NavbarComponent -->
<g id="node11" class="node">
<title>NavbarComponent</title>
<polygon fill="#ffffb3" stroke="black" points="839.03,-84.8 716.97,-84.8 716.97,-48.8 839.03,-48.8 839.03,-84.8"/>
<text text-anchor="middle" x="778" y="-62.6" font-family="Times,serif" font-size="14.00">NavbarComponent</text>
</g>
<!-- NavbarComponent&#45;&gt;CoreModule -->
<g id="edge10" class="edge">
<title>NavbarComponent&#45;&gt;CoreModule</title>
<path fill="none" stroke="black" d="M769.56,-84.86C769.56,-89.29 769.56,-92.8 769.56,-92.8 769.56,-92.8 646.46,-92.8 646.46,-92.8 646.46,-92.8 646.46,-114.75 646.46,-114.75"/>
<polygon fill="black" stroke="black" points="642.96,-114.75 646.46,-124.75 649.96,-114.75 642.96,-114.75"/>
</g>
<!-- HttpErrorInterceptor -->
<g id="node14" class="node">
<title>HttpErrorInterceptor</title>
<ellipse fill="#fdb462" stroke="black" cx="312" cy="-66.8" rx="90.87" ry="18"/>
<text text-anchor="middle" x="312" y="-62.6" font-family="Times,serif" font-size="14.00">HttpErrorInterceptor</text>
</g>
<!-- HttpErrorInterceptor&#45;&gt;CoreModule -->
<g id="edge13" class="edge">
<title>HttpErrorInterceptor&#45;&gt;CoreModule</title>
<path fill="none" stroke="black" d="M351.67,-83.17C351.67,-97.75 351.67,-116.8 351.67,-116.8 351.67,-116.8 603.08,-116.8 603.08,-116.8 603.08,-116.8 603.08,-117.59 603.08,-117.59"/>
<polygon fill="black" stroke="black" points="599.58,-114.74 603.08,-124.74 606.58,-114.74 599.58,-114.74"/>
</g>
<!-- CharacterCardComponent -->
<g id="node15" class="node">
<title>CharacterCardComponent</title>
<polygon fill="#ffffb3" stroke="black" points="2634.45,-228.8 2471.55,-228.8 2471.55,-192.8 2634.45,-192.8 2634.45,-228.8"/>
<text text-anchor="middle" x="2553" y="-206.6" font-family="Times,serif" font-size="14.00">CharacterCardComponent</text>
</g>
<!-- CharacterCardComponent&#45;&gt;SharedModule -->
<g id="edge14" class="edge">
<title>CharacterCardComponent&#45;&gt;SharedModule</title>
<path fill="none" stroke="black" d="M2553,-192.6C2553,-168.44 2553,-128.8 2553,-128.8 2553,-128.8 949.32,-128.8 949.32,-128.8"/>
<polygon fill="black" stroke="black" points="949.32,-125.3 939.32,-128.8 949.32,-132.3 949.32,-125.3"/>
</g>
<!-- ComicCardComponent -->
<g id="node16" class="node">
<title>ComicCardComponent</title>
<polygon fill="#ffffb3" stroke="black" points="2453.88,-228.8 2308.12,-228.8 2308.12,-192.8 2453.88,-192.8 2453.88,-228.8"/>
<text text-anchor="middle" x="2381" y="-206.6" font-family="Times,serif" font-size="14.00">ComicCardComponent</text>
</g>
<!-- ComicCardComponent&#45;&gt;SharedModule -->
<g id="edge15" class="edge">
<title>ComicCardComponent&#45;&gt;SharedModule</title>
<path fill="none" stroke="black" d="M2381,-192.71C2381,-169.67 2381,-132.8 2381,-132.8 2381,-132.8 949.61,-132.8 949.61,-132.8"/>
<polygon fill="black" stroke="black" points="949.61,-129.3 939.61,-132.8 949.61,-136.3 949.61,-129.3"/>
</g>
<!-- ProgressBarComponent -->
<g id="node17" class="node">
<title>ProgressBarComponent</title>
<polygon fill="#ffffb3" stroke="black" points="2289.77,-228.8 2140.23,-228.8 2140.23,-192.8 2289.77,-192.8 2289.77,-228.8"/>
<text text-anchor="middle" x="2215" y="-206.6" font-family="Times,serif" font-size="14.00">ProgressBarComponent</text>
</g>
<!-- ProgressBarComponent&#45;&gt;SharedModule -->
<g id="edge16" class="edge">
<title>ProgressBarComponent&#45;&gt;SharedModule</title>
<path fill="none" stroke="black" d="M2215,-192.64C2215,-170.45 2215,-135.8 2215,-135.8 2215,-135.8 949.52,-135.8 949.52,-135.8"/>
<polygon fill="black" stroke="black" points="949.52,-132.3 939.52,-135.8 949.52,-139.3 949.52,-132.3"/>
</g>
<!-- SearchBarComponent -->
<g id="node18" class="node">
<title>SearchBarComponent</title>
<polygon fill="#ffffb3" stroke="black" points="2121.64,-228.8 1982.36,-228.8 1982.36,-192.8 2121.64,-192.8 2121.64,-228.8"/>
<text text-anchor="middle" x="2052" y="-206.6" font-family="Times,serif" font-size="14.00">SearchBarComponent</text>
</g>
<!-- SearchBarComponent&#45;&gt;SharedModule -->
<g id="edge17" class="edge">
<title>SearchBarComponent&#45;&gt;SharedModule</title>
<path fill="none" stroke="black" d="M2052,-192.52C2052,-171.48 2052,-139.8 2052,-139.8 2052,-139.8 949.56,-139.8 949.56,-139.8"/>
<polygon fill="black" stroke="black" points="949.56,-136.3 939.56,-139.8 949.56,-143.3 949.56,-136.3"/>
</g>
<!-- SerieCardComponent -->
<g id="node19" class="node">
<title>SerieCardComponent</title>
<polygon fill="#ffffb3" stroke="black" points="1964.81,-228.8 1827.19,-228.8 1827.19,-192.8 1964.81,-192.8 1964.81,-228.8"/>
<text text-anchor="middle" x="1896" y="-206.6" font-family="Times,serif" font-size="14.00">SerieCardComponent</text>
</g>
<!-- SerieCardComponent&#45;&gt;SharedModule -->
<g id="edge18" class="edge">
<title>SerieCardComponent&#45;&gt;SharedModule</title>
<path fill="none" stroke="black" d="M1896,-192.58C1896,-172.43 1896,-142.8 1896,-142.8 1896,-142.8 949.54,-142.8 949.54,-142.8"/>
<polygon fill="black" stroke="black" points="949.54,-139.3 939.54,-142.8 949.54,-146.3 949.54,-139.3"/>
</g>
</g>
</svg>
